<mxfile host="app.diagrams.net" agent="Mozilla/5.0 (Windows NT 10.0; Win64; x64) AppleWebKit/537.36 (KHTML, like Gecko) Chrome/128.0.0.0 YaBrowser/24.10.0.0 Safari/537.36" version="24.9.1">
  <diagram id="C5RBs43oDa-KdzZeNtuy" name="Page-1">
    <mxGraphModel dx="1707" dy="479" grid="1" gridSize="10" guides="1" tooltips="1" connect="1" arrows="1" fold="1" page="1" pageScale="1" pageWidth="827" pageHeight="1169" math="0" shadow="0">
      <root>
        <mxCell id="WIyWlLk6GJQsqaUBKTNV-0" />
        <mxCell id="WIyWlLk6GJQsqaUBKTNV-1" parent="WIyWlLk6GJQsqaUBKTNV-0" />
        <mxCell id="y7-WqTiSZwzM4GF_aPAU-0" value="genre" style="swimlane;fontStyle=0;childLayout=stackLayout;horizontal=1;startSize=30;horizontalStack=0;resizeParent=1;resizeParentMax=0;resizeLast=0;collapsible=1;marginBottom=0;whiteSpace=wrap;html=1;" parent="WIyWlLk6GJQsqaUBKTNV-1" vertex="1">
          <mxGeometry x="-20" y="305" width="140" height="90" as="geometry" />
        </mxCell>
        <mxCell id="y7-WqTiSZwzM4GF_aPAU-1" value="id" style="text;strokeColor=none;fillColor=none;align=left;verticalAlign=middle;spacingLeft=4;spacingRight=4;overflow=hidden;points=[[0,0.5],[1,0.5]];portConstraint=eastwest;rotatable=0;whiteSpace=wrap;html=1;" parent="y7-WqTiSZwzM4GF_aPAU-0" vertex="1">
          <mxGeometry y="30" width="140" height="30" as="geometry" />
        </mxCell>
        <mxCell id="y7-WqTiSZwzM4GF_aPAU-2" value="name" style="text;strokeColor=none;fillColor=none;align=left;verticalAlign=middle;spacingLeft=4;spacingRight=4;overflow=hidden;points=[[0,0.5],[1,0.5]];portConstraint=eastwest;rotatable=0;whiteSpace=wrap;html=1;" parent="y7-WqTiSZwzM4GF_aPAU-0" vertex="1">
          <mxGeometry y="60" width="140" height="30" as="geometry" />
        </mxCell>
        <mxCell id="y7-WqTiSZwzM4GF_aPAU-4" value="album" style="swimlane;fontStyle=0;childLayout=stackLayout;horizontal=1;startSize=30;horizontalStack=0;resizeParent=1;resizeParentMax=0;resizeLast=0;collapsible=1;marginBottom=0;whiteSpace=wrap;html=1;" parent="WIyWlLk6GJQsqaUBKTNV-1" vertex="1">
          <mxGeometry x="440" y="290" width="140" height="120" as="geometry" />
        </mxCell>
        <mxCell id="y7-WqTiSZwzM4GF_aPAU-5" value="id" style="text;strokeColor=none;fillColor=none;align=left;verticalAlign=middle;spacingLeft=4;spacingRight=4;overflow=hidden;points=[[0,0.5],[1,0.5]];portConstraint=eastwest;rotatable=0;whiteSpace=wrap;html=1;" parent="y7-WqTiSZwzM4GF_aPAU-4" vertex="1">
          <mxGeometry y="30" width="140" height="30" as="geometry" />
        </mxCell>
        <mxCell id="y7-WqTiSZwzM4GF_aPAU-6" value="name" style="text;strokeColor=none;fillColor=none;align=left;verticalAlign=middle;spacingLeft=4;spacingRight=4;overflow=hidden;points=[[0,0.5],[1,0.5]];portConstraint=eastwest;rotatable=0;whiteSpace=wrap;html=1;" parent="y7-WqTiSZwzM4GF_aPAU-4" vertex="1">
          <mxGeometry y="60" width="140" height="30" as="geometry" />
        </mxCell>
        <mxCell id="y7-WqTiSZwzM4GF_aPAU-7" value="year" style="text;strokeColor=none;fillColor=none;align=left;verticalAlign=middle;spacingLeft=4;spacingRight=4;overflow=hidden;points=[[0,0.5],[1,0.5]];portConstraint=eastwest;rotatable=0;whiteSpace=wrap;html=1;" parent="y7-WqTiSZwzM4GF_aPAU-4" vertex="1">
          <mxGeometry y="90" width="140" height="30" as="geometry" />
        </mxCell>
        <mxCell id="y7-WqTiSZwzM4GF_aPAU-8" value="songer" style="swimlane;fontStyle=0;childLayout=stackLayout;horizontal=1;startSize=30;horizontalStack=0;resizeParent=1;resizeParentMax=0;resizeLast=0;collapsible=1;marginBottom=0;whiteSpace=wrap;html=1;" parent="WIyWlLk6GJQsqaUBKTNV-1" vertex="1">
          <mxGeometry x="200" y="295" width="140" height="120" as="geometry" />
        </mxCell>
        <mxCell id="y7-WqTiSZwzM4GF_aPAU-9" value="id" style="text;strokeColor=none;fillColor=none;align=left;verticalAlign=middle;spacingLeft=4;spacingRight=4;overflow=hidden;points=[[0,0.5],[1,0.5]];portConstraint=eastwest;rotatable=0;whiteSpace=wrap;html=1;" parent="y7-WqTiSZwzM4GF_aPAU-8" vertex="1">
          <mxGeometry y="30" width="140" height="30" as="geometry" />
        </mxCell>
        <mxCell id="y7-WqTiSZwzM4GF_aPAU-10" value="name" style="text;strokeColor=none;fillColor=none;align=left;verticalAlign=middle;spacingLeft=4;spacingRight=4;overflow=hidden;points=[[0,0.5],[1,0.5]];portConstraint=eastwest;rotatable=0;whiteSpace=wrap;html=1;" parent="y7-WqTiSZwzM4GF_aPAU-8" vertex="1">
          <mxGeometry y="60" width="140" height="30" as="geometry" />
        </mxCell>
        <mxCell id="y7-WqTiSZwzM4GF_aPAU-11" value="genre" style="text;strokeColor=none;fillColor=none;align=left;verticalAlign=middle;spacingLeft=4;spacingRight=4;overflow=hidden;points=[[0,0.5],[1,0.5]];portConstraint=eastwest;rotatable=0;whiteSpace=wrap;html=1;" parent="y7-WqTiSZwzM4GF_aPAU-8" vertex="1">
          <mxGeometry y="90" width="140" height="30" as="geometry" />
        </mxCell>
        <mxCell id="y7-WqTiSZwzM4GF_aPAU-12" value="track" style="swimlane;fontStyle=0;childLayout=stackLayout;horizontal=1;startSize=30;horizontalStack=0;resizeParent=1;resizeParentMax=0;resizeLast=0;collapsible=1;marginBottom=0;whiteSpace=wrap;html=1;" parent="WIyWlLk6GJQsqaUBKTNV-1" vertex="1">
          <mxGeometry x="687" y="270" width="140" height="150" as="geometry">
            <mxRectangle x="630" y="280" width="70" height="30" as="alternateBounds" />
          </mxGeometry>
        </mxCell>
        <mxCell id="y7-WqTiSZwzM4GF_aPAU-13" value="id" style="text;strokeColor=none;fillColor=none;align=left;verticalAlign=middle;spacingLeft=4;spacingRight=4;overflow=hidden;points=[[0,0.5],[1,0.5]];portConstraint=eastwest;rotatable=0;whiteSpace=wrap;html=1;" parent="y7-WqTiSZwzM4GF_aPAU-12" vertex="1">
          <mxGeometry y="30" width="140" height="30" as="geometry" />
        </mxCell>
        <mxCell id="y7-WqTiSZwzM4GF_aPAU-14" value="name" style="text;strokeColor=none;fillColor=none;align=left;verticalAlign=middle;spacingLeft=4;spacingRight=4;overflow=hidden;points=[[0,0.5],[1,0.5]];portConstraint=eastwest;rotatable=0;whiteSpace=wrap;html=1;" parent="y7-WqTiSZwzM4GF_aPAU-12" vertex="1">
          <mxGeometry y="60" width="140" height="30" as="geometry" />
        </mxCell>
        <mxCell id="y7-WqTiSZwzM4GF_aPAU-15" value="time" style="text;strokeColor=none;fillColor=none;align=left;verticalAlign=middle;spacingLeft=4;spacingRight=4;overflow=hidden;points=[[0,0.5],[1,0.5]];portConstraint=eastwest;rotatable=0;whiteSpace=wrap;html=1;" parent="y7-WqTiSZwzM4GF_aPAU-12" vertex="1">
          <mxGeometry y="90" width="140" height="30" as="geometry" />
        </mxCell>
        <mxCell id="y7-WqTiSZwzM4GF_aPAU-36" value="album" style="text;strokeColor=none;fillColor=none;align=left;verticalAlign=middle;spacingLeft=4;spacingRight=4;overflow=hidden;points=[[0,0.5],[1,0.5]];portConstraint=eastwest;rotatable=0;whiteSpace=wrap;html=1;" parent="y7-WqTiSZwzM4GF_aPAU-12" vertex="1">
          <mxGeometry y="120" width="140" height="30" as="geometry" />
        </mxCell>
        <mxCell id="y7-WqTiSZwzM4GF_aPAU-16" value="gensong" style="swimlane;fontStyle=0;childLayout=stackLayout;horizontal=1;startSize=30;horizontalStack=0;resizeParent=1;resizeParentMax=0;resizeLast=0;collapsible=1;marginBottom=0;whiteSpace=wrap;html=1;" parent="WIyWlLk6GJQsqaUBKTNV-1" vertex="1">
          <mxGeometry x="90" y="500" width="140" height="120" as="geometry" />
        </mxCell>
        <mxCell id="y7-WqTiSZwzM4GF_aPAU-17" value="id" style="text;strokeColor=none;fillColor=none;align=left;verticalAlign=middle;spacingLeft=4;spacingRight=4;overflow=hidden;points=[[0,0.5],[1,0.5]];portConstraint=eastwest;rotatable=0;whiteSpace=wrap;html=1;" parent="y7-WqTiSZwzM4GF_aPAU-16" vertex="1">
          <mxGeometry y="30" width="140" height="30" as="geometry" />
        </mxCell>
        <mxCell id="y7-WqTiSZwzM4GF_aPAU-18" value="genre" style="text;strokeColor=none;fillColor=none;align=left;verticalAlign=middle;spacingLeft=4;spacingRight=4;overflow=hidden;points=[[0,0.5],[1,0.5]];portConstraint=eastwest;rotatable=0;whiteSpace=wrap;html=1;" parent="y7-WqTiSZwzM4GF_aPAU-16" vertex="1">
          <mxGeometry y="60" width="140" height="30" as="geometry" />
        </mxCell>
        <mxCell id="y7-WqTiSZwzM4GF_aPAU-19" value="songer" style="text;strokeColor=none;fillColor=none;align=left;verticalAlign=middle;spacingLeft=4;spacingRight=4;overflow=hidden;points=[[0,0.5],[1,0.5]];portConstraint=eastwest;rotatable=0;whiteSpace=wrap;html=1;" parent="y7-WqTiSZwzM4GF_aPAU-16" vertex="1">
          <mxGeometry y="90" width="140" height="30" as="geometry" />
        </mxCell>
        <mxCell id="y7-WqTiSZwzM4GF_aPAU-20" value="songalb" style="swimlane;fontStyle=0;childLayout=stackLayout;horizontal=1;startSize=30;horizontalStack=0;resizeParent=1;resizeParentMax=0;resizeLast=0;collapsible=1;marginBottom=0;whiteSpace=wrap;html=1;" parent="WIyWlLk6GJQsqaUBKTNV-1" vertex="1">
          <mxGeometry x="370" y="500" width="140" height="120" as="geometry" />
        </mxCell>
        <mxCell id="y7-WqTiSZwzM4GF_aPAU-21" value="id" style="text;strokeColor=none;fillColor=none;align=left;verticalAlign=middle;spacingLeft=4;spacingRight=4;overflow=hidden;points=[[0,0.5],[1,0.5]];portConstraint=eastwest;rotatable=0;whiteSpace=wrap;html=1;" parent="y7-WqTiSZwzM4GF_aPAU-20" vertex="1">
          <mxGeometry y="30" width="140" height="30" as="geometry" />
        </mxCell>
        <mxCell id="y7-WqTiSZwzM4GF_aPAU-22" value="songer" style="text;strokeColor=none;fillColor=none;align=left;verticalAlign=middle;spacingLeft=4;spacingRight=4;overflow=hidden;points=[[0,0.5],[1,0.5]];portConstraint=eastwest;rotatable=0;whiteSpace=wrap;html=1;" parent="y7-WqTiSZwzM4GF_aPAU-20" vertex="1">
          <mxGeometry y="60" width="140" height="30" as="geometry" />
        </mxCell>
        <mxCell id="y7-WqTiSZwzM4GF_aPAU-23" value="album" style="text;strokeColor=none;fillColor=none;align=left;verticalAlign=middle;spacingLeft=4;spacingRight=4;overflow=hidden;points=[[0,0.5],[1,0.5]];portConstraint=eastwest;rotatable=0;whiteSpace=wrap;html=1;" parent="y7-WqTiSZwzM4GF_aPAU-20" vertex="1">
          <mxGeometry y="90" width="140" height="30" as="geometry" />
        </mxCell>
        <mxCell id="y7-WqTiSZwzM4GF_aPAU-24" value="collection" style="swimlane;fontStyle=0;childLayout=stackLayout;horizontal=1;startSize=30;horizontalStack=0;resizeParent=1;resizeParentMax=0;resizeLast=0;collapsible=1;marginBottom=0;whiteSpace=wrap;html=1;" parent="WIyWlLk6GJQsqaUBKTNV-1" vertex="1">
          <mxGeometry x="680" y="680" width="140" height="120" as="geometry" />
        </mxCell>
        <mxCell id="y7-WqTiSZwzM4GF_aPAU-25" value="id" style="text;strokeColor=none;fillColor=none;align=left;verticalAlign=middle;spacingLeft=4;spacingRight=4;overflow=hidden;points=[[0,0.5],[1,0.5]];portConstraint=eastwest;rotatable=0;whiteSpace=wrap;html=1;" parent="y7-WqTiSZwzM4GF_aPAU-24" vertex="1">
          <mxGeometry y="30" width="140" height="30" as="geometry" />
        </mxCell>
        <mxCell id="y7-WqTiSZwzM4GF_aPAU-26" value="name" style="text;strokeColor=none;fillColor=none;align=left;verticalAlign=middle;spacingLeft=4;spacingRight=4;overflow=hidden;points=[[0,0.5],[1,0.5]];portConstraint=eastwest;rotatable=0;whiteSpace=wrap;html=1;" parent="y7-WqTiSZwzM4GF_aPAU-24" vertex="1">
          <mxGeometry y="60" width="140" height="30" as="geometry" />
        </mxCell>
        <mxCell id="y7-WqTiSZwzM4GF_aPAU-27" value="year" style="text;strokeColor=none;fillColor=none;align=left;verticalAlign=middle;spacingLeft=4;spacingRight=4;overflow=hidden;points=[[0,0.5],[1,0.5]];portConstraint=eastwest;rotatable=0;whiteSpace=wrap;html=1;" parent="y7-WqTiSZwzM4GF_aPAU-24" vertex="1">
          <mxGeometry y="90" width="140" height="30" as="geometry" />
        </mxCell>
        <mxCell id="y7-WqTiSZwzM4GF_aPAU-28" value="tracol" style="swimlane;fontStyle=0;childLayout=stackLayout;horizontal=1;startSize=30;horizontalStack=0;resizeParent=1;resizeParentMax=0;resizeLast=0;collapsible=1;marginBottom=0;whiteSpace=wrap;html=1;" parent="WIyWlLk6GJQsqaUBKTNV-1" vertex="1">
          <mxGeometry x="460" y="680" width="140" height="120" as="geometry" />
        </mxCell>
        <mxCell id="y7-WqTiSZwzM4GF_aPAU-29" value="id" style="text;strokeColor=none;fillColor=none;align=left;verticalAlign=middle;spacingLeft=4;spacingRight=4;overflow=hidden;points=[[0,0.5],[1,0.5]];portConstraint=eastwest;rotatable=0;whiteSpace=wrap;html=1;" parent="y7-WqTiSZwzM4GF_aPAU-28" vertex="1">
          <mxGeometry y="30" width="140" height="30" as="geometry" />
        </mxCell>
        <mxCell id="y7-WqTiSZwzM4GF_aPAU-30" value="track" style="text;strokeColor=none;fillColor=none;align=left;verticalAlign=middle;spacingLeft=4;spacingRight=4;overflow=hidden;points=[[0,0.5],[1,0.5]];portConstraint=eastwest;rotatable=0;whiteSpace=wrap;html=1;" parent="y7-WqTiSZwzM4GF_aPAU-28" vertex="1">
          <mxGeometry y="60" width="140" height="30" as="geometry" />
        </mxCell>
        <mxCell id="y7-WqTiSZwzM4GF_aPAU-31" value="collection" style="text;strokeColor=none;fillColor=none;align=left;verticalAlign=middle;spacingLeft=4;spacingRight=4;overflow=hidden;points=[[0,0.5],[1,0.5]];portConstraint=eastwest;rotatable=0;whiteSpace=wrap;html=1;" parent="y7-WqTiSZwzM4GF_aPAU-28" vertex="1">
          <mxGeometry y="90" width="140" height="30" as="geometry" />
        </mxCell>
        <mxCell id="kh9tEOhtiOAV7tFD9UJh-1" value="" style="endArrow=ERmany;html=1;rounded=0;entryX=0.679;entryY=1.133;entryDx=0;entryDy=0;entryPerimeter=0;exitX=0.143;exitY=-0.033;exitDx=0;exitDy=0;exitPerimeter=0;startArrow=ERmany;startFill=0;endFill=0;" edge="1" parent="WIyWlLk6GJQsqaUBKTNV-1" source="y7-WqTiSZwzM4GF_aPAU-16" target="y7-WqTiSZwzM4GF_aPAU-2">
          <mxGeometry width="50" height="50" relative="1" as="geometry">
            <mxPoint x="90" y="480" as="sourcePoint" />
            <mxPoint x="140" y="430" as="targetPoint" />
          </mxGeometry>
        </mxCell>
        <mxCell id="kh9tEOhtiOAV7tFD9UJh-2" value="" style="endArrow=ERmany;html=1;rounded=0;entryX=0.107;entryY=1.1;entryDx=0;entryDy=0;entryPerimeter=0;exitX=0.143;exitY=-0.033;exitDx=0;exitDy=0;exitPerimeter=0;startArrow=ERmany;startFill=0;endFill=0;" edge="1" parent="WIyWlLk6GJQsqaUBKTNV-1" target="y7-WqTiSZwzM4GF_aPAU-11">
          <mxGeometry width="50" height="50" relative="1" as="geometry">
            <mxPoint x="177.5" y="500" as="sourcePoint" />
            <mxPoint x="142.5" y="403" as="targetPoint" />
          </mxGeometry>
        </mxCell>
        <mxCell id="kh9tEOhtiOAV7tFD9UJh-3" value="" style="endArrow=ERmany;html=1;rounded=0;entryX=0.679;entryY=1.133;entryDx=0;entryDy=0;entryPerimeter=0;exitX=0.143;exitY=-0.033;exitDx=0;exitDy=0;exitPerimeter=0;startArrow=ERmany;startFill=0;endFill=0;" edge="1" parent="WIyWlLk6GJQsqaUBKTNV-1">
          <mxGeometry width="50" height="50" relative="1" as="geometry">
            <mxPoint x="375" y="500" as="sourcePoint" />
            <mxPoint x="340" y="403" as="targetPoint" />
          </mxGeometry>
        </mxCell>
        <mxCell id="kh9tEOhtiOAV7tFD9UJh-4" value="" style="endArrow=ERmany;html=1;rounded=0;entryX=0.679;entryY=1.133;entryDx=0;entryDy=0;entryPerimeter=0;exitX=0.657;exitY=-0.008;exitDx=0;exitDy=0;exitPerimeter=0;startArrow=ERmany;startFill=0;endFill=0;" edge="1" parent="WIyWlLk6GJQsqaUBKTNV-1" source="y7-WqTiSZwzM4GF_aPAU-20">
          <mxGeometry width="50" height="50" relative="1" as="geometry">
            <mxPoint x="545" y="507" as="sourcePoint" />
            <mxPoint x="510" y="410" as="targetPoint" />
          </mxGeometry>
        </mxCell>
        <mxCell id="kh9tEOhtiOAV7tFD9UJh-5" value="" style="endArrow=oval;html=1;rounded=0;entryX=0.679;entryY=1.133;entryDx=0;entryDy=0;entryPerimeter=0;exitX=-0.021;exitY=0.267;exitDx=0;exitDy=0;exitPerimeter=0;endFill=1;startArrow=ERmany;startFill=0;" edge="1" parent="WIyWlLk6GJQsqaUBKTNV-1" source="y7-WqTiSZwzM4GF_aPAU-36">
          <mxGeometry width="50" height="50" relative="1" as="geometry">
            <mxPoint x="615" y="457" as="sourcePoint" />
            <mxPoint x="580" y="360" as="targetPoint" />
          </mxGeometry>
        </mxCell>
        <mxCell id="kh9tEOhtiOAV7tFD9UJh-6" value="" style="endArrow=ERmany;html=1;rounded=0;entryX=0.107;entryY=1.1;entryDx=0;entryDy=0;entryPerimeter=0;exitX=0.75;exitY=0;exitDx=0;exitDy=0;startArrow=ERmany;startFill=0;endFill=0;" edge="1" parent="WIyWlLk6GJQsqaUBKTNV-1" source="y7-WqTiSZwzM4GF_aPAU-28" target="y7-WqTiSZwzM4GF_aPAU-36">
          <mxGeometry width="50" height="50" relative="1" as="geometry">
            <mxPoint x="615" y="585" as="sourcePoint" />
            <mxPoint x="580" y="488" as="targetPoint" />
          </mxGeometry>
        </mxCell>
        <mxCell id="kh9tEOhtiOAV7tFD9UJh-8" value="" style="endArrow=ERmany;html=1;rounded=0;entryX=1;entryY=0.5;entryDx=0;entryDy=0;exitX=0;exitY=0.5;exitDx=0;exitDy=0;startArrow=ERmany;startFill=0;endFill=0;" edge="1" parent="WIyWlLk6GJQsqaUBKTNV-1" source="y7-WqTiSZwzM4GF_aPAU-26" target="y7-WqTiSZwzM4GF_aPAU-31">
          <mxGeometry width="50" height="50" relative="1" as="geometry">
            <mxPoint x="665" y="787" as="sourcePoint" />
            <mxPoint x="630" y="690" as="targetPoint" />
          </mxGeometry>
        </mxCell>
      </root>
    </mxGraphModel>
  </diagram>
</mxfile>
